<svg xmlns="http://www.w3.org/2000/svg" width="118" height="118" fill="none"><path fill="gray" d="M19.771 118h78.457c11.758 0 20.983-9.738 19.642-20.922L107.084 7.089C106.6 3.047 103.008 0 98.729 0H75.833c-5.001 0-8.925 4.142-8.355 8.899l1.623 13.538c.28 2.34-1.632 4.43-4.159 4.43h-.82c-1.004 0-1.818.774-1.818 1.729 0 .954.814 1.728 1.818 1.728h.82c4.653 0 8.302-3.853 7.772-8.278L71.092 8.508c-.321-2.675 1.866-5.051 4.741-5.051H91.26a7.703 7.703 0 0 0-1.431 5.442l.244 2.039c.114.949 1.018 1.628 2.013 1.522.997-.109 1.714-.965 1.6-1.914l-.244-2.038c-.32-2.669 1.86-5.051 4.741-5.051h.546c2.429 0 4.467 1.73 4.742 4.023l1.684 14.05c.34 2.838-1.997 5.337-5.011 5.337-2.566 0-4.72-1.828-5.011-4.251l-.468-3.902c-.114-.948-1.02-1.631-2.012-1.521-.998.108-1.715.964-1.601 1.913l.467 3.901c.5 4.171 4.208 7.317 8.625 7.317 2.154 0 4.225-.764 5.81-2.122l8.303 69.267c1.087 9.064-6.367 17.074-16.03 17.074H19.772c-9.595 0-17.123-7.948-16.029-17.074l7.45-62.147c.113-.949-.603-1.805-1.601-1.913-.997-.109-1.899.573-2.013 1.522L.13 97.078C-1.201 108.185 7.931 118 19.771 118Z"/><path fill="gray" d="M10.157 28.685c.998.108 1.899-.573 2.012-1.522L14.53 7.48c.274-2.293 2.313-4.023 4.741-4.023h15.424a7.737 7.737 0 0 0-1.429 3.632l-1.793 14.957c-.526 4.395 3.088 8.278 7.773 8.278h16.392c1.004 0 1.818-.774 1.818-1.728 0-.955-.814-1.729-1.818-1.729h-2.58c-2.49 0-4.444-2.053-4.16-4.43L50.522 8.9C51.087 4.174 47.202 0 42.166 0H19.27c-4.278 0-7.87 3.047-8.355 7.089L8.556 26.772c-.113.949.603 1.805 1.601 1.913Zm24.929-6.248L36.879 7.48c.274-2.293 2.313-4.023 4.741-4.023h.546c2.825 0 5.068 2.33 4.742 5.05l-1.623 13.539a7.154 7.154 0 0 0 1.165 4.821h-7.205c-2.484 0-4.445-2.048-4.16-4.43ZM81.192 85.194l-7.106-11.701c-.89-1.465-2.86-1.968-4.401-1.121l-2.817 1.546c-1.542.846-2.07 2.718-1.18 4.184l5.33 8.778H65.15a4.452 4.452 0 0 0-1.117-4.531c-1.859-1.835-4.972-1.914-6.92-.062l-6.251 5.943c-1.895 1.801-1.896 4.717 0 6.52l6.25 5.942c1.895 1.801 4.96 1.802 6.856.001 1.293-1.227 1.674-3.007 1.18-4.594h9.273c6.125 0 9.691-6.097 6.771-10.905Zm-19.586 7.448c-.735 0-1.398.421-1.68 1.067a1.667 1.667 0 0 0 .394 1.884l1.014.964c.238.225.378.546.385.88.022 1.08-1.306 1.502-2.035.81l-6.251-5.943a1.112 1.112 0 0 1 0-1.63l6.252-5.942a1.256 1.256 0 0 1 1.73.016c.447.44.407 1.21-.088 1.681l-1.006.957a1.667 1.667 0 0 0-.394 1.884c.28.646.944 1.067 1.68 1.067h12.561c1.395 0 2.275-1.44 1.575-2.593l-6.698-11.029 2.1-1.152 6.898 11.36c1.569 2.582-.39 5.719-3.622 5.719H61.606ZM29.592 96.099h14.24c1.776 0 3.222-1.374 3.222-3.063v-3.093c0-1.689-1.446-3.063-3.222-3.063h-10.69l2.918-4.805a4.967 4.967 0 0 0 3.534 1.456c3.192 0 5.507-2.888 4.685-5.803L41.99 69.61c-.692-2.454-3.354-3.917-5.938-3.26l-8.54 2.176c-2.582.658-4.12 3.19-3.429 5.645.478 1.695 1.896 2.916 3.579 3.294l-4.634 7.63c-3.001 4.941.639 11.004 6.563 11.004Zm-3.413-9.275 6.42-10.574a1.659 1.659 0 0 0-.131-1.916 1.871 1.871 0 0 0-1.914-.617l-1.47.374c-.647.164-1.314-.2-1.487-.814-.173-.614.212-1.247.857-1.412l8.54-2.175c.646-.164 1.311.202 1.484.815l2.289 8.118c.205.728-.372 1.451-1.174 1.451-.546 0-1.026-.351-1.168-.854l-.395-1.4c-.19-.676-.79-1.176-1.519-1.267-.729-.09-1.444.244-1.812.85l-6.28 10.341c-.698 1.149.173 2.593 1.574 2.593h13.424v2.305H29.591c-3.089 0-5.032-3.152-3.412-5.818ZM45.474 48.15l-7.115 11.713c-.887 1.463-.358 3.34 1.18 4.184l2.817 1.546c1.543.847 3.511.346 4.401-1.12l5.339-8.79 2.918 4.805c-1.682.378-3.1 1.6-3.578 3.294-.692 2.455.846 4.987 3.429 5.645l8.54 2.176c2.607.663 5.251-.824 5.938-3.26l2.288-8.118c.692-2.455-.846-4.987-3.43-5.646-1.782-.453-3.604.104-4.788 1.3l-4.694-7.73c-2.942-4.845-10.3-4.85-13.245 0Zm10.096 1.728L62.05 60.55c.368.606 1.084.94 1.812.85.73-.091 1.329-.591 1.52-1.267l.394-1.4c.173-.613.839-.978 1.484-.815.646.165 1.03.798.858 1.412l-2.288 8.118c-.142.504-.623.855-1.17.855-.226 0 .496.166-8.854-2.215-.646-.165-1.03-.798-.858-1.412.146-.514.637-.854 1.172-.854.23 0 .256.025 1.785.415a1.872 1.872 0 0 0 1.914-.617c.447-.555.5-1.312.132-1.917l-6.28-10.342c-.7-1.15-2.45-1.152-3.15 0l-6.706 11.041-2.1-1.152 6.907-11.372c1.543-2.541 5.402-2.544 6.947 0ZM99.428 75.463c1.084 0 1.932-.895 1.809-1.925l-4.864-40.576c-.114-.949-1.015-1.631-2.013-1.522-.998.108-1.714.965-1.6 1.913l4.863 40.577c.106.882.893 1.533 1.805 1.533Z"/></svg>