<svg xmlns="http://www.w3.org/2000/svg" width="118" height="118" fill="none"><path fill="gray" d="M104.384 13.332v-6.24c0-3.91-3.181-7.092-7.09-7.092H20.705a7.1 7.1 0 0 0-7.09 7.091v6.24a7.102 7.102 0 0 0 4.295 6.517 14.026 14.026 0 0 0-4.296 10.106V109.3c0 4.797 3.902 8.699 8.699 8.699h73.372c4.796 0 8.698-3.902 8.698-8.699V29.954c0-3.963-1.649-7.546-4.295-10.106a7.102 7.102 0 0 0 4.295-6.516ZM99.846 109.3a4.166 4.166 0 0 1-4.16 4.161H22.314a4.166 4.166 0 0 1-4.16-4.161V96.442h81.692v12.859Zm0-17.397H18.154V52.192h9.077a2.27 2.27 0 0 0 0-4.538h-9.077v-5.673h81.692v49.923Zm0-54.462H18.154v-7.488c0-5.255 4.275-9.53 9.53-9.53h62.631c5.256 0 9.531 4.275 9.531 9.53v7.488Zm0-24.11a2.556 2.556 0 0 1-2.553 2.553H20.706a2.556 2.556 0 0 1-2.552-2.553v-6.24a2.556 2.556 0 0 1 2.552-2.554h76.587a2.556 2.556 0 0 1 2.553 2.553v6.24Z"/><path fill="gray" d="M35.643 48.319a2.286 2.286 0 0 0-1.604-.665c-.597 0-1.183.243-1.605.665a2.287 2.287 0 0 0-.664 1.604c0 .597.242 1.182.664 1.604a2.287 2.287 0 0 0 1.605.665c.596 0 1.182-.243 1.604-.665a2.287 2.287 0 0 0 .665-1.604c0-.597-.243-1.182-.665-1.604Z"/></svg>