<svg xmlns="http://www.w3.org/2000/svg" width="70" height="60" fill="none"><path fill="url(#a)" fill-rule="evenodd" d="M29.992 59.984C13.428 59.984 0 46.556 0 29.992S13.428 0 29.992 0s29.992 13.428 29.992 29.992-13.428 29.992-29.992 29.992ZM26.608 9.21c-9.746 6.497-13.132 16.94-14.29 24.139l-.045-.012c-.097.379-2.485 9.33-2.405 18.892.968.88 2.088 1.737 3.182 2.514-.297-4.877-.064-9.1.677-13.945.185-.661.418-1.43.728-2.286.335-.937.758-1.973 1.266-3.075a41.887 41.887 0 0 1 1.807-3.456 42.331 42.331 0 0 1 2.352-3.634 43.198 43.198 0 0 1 2.87-3.606c1.027-1.184 2.157-2.31 3.323-3.385 1.162-1.082 2.412-2.064 3.659-2.996.644-.439 1.26-.905 1.912-1.3l.96-.608.97-.557c1.28-.738 2.573-1.349 3.805-1.898l1.825-.729 1.733-.597 1.615-.47c.515-.142 1.011-.247 1.473-.36.46-.119.898-.202 1.302-.273l1.11-.206c1.347-.194 2.117-.29 2.117-.29s-.763.156-2.085.451l-1.086.289c-.395.1-.82.215-1.266.368-.448.147-.93.287-1.426.466l-1.553.584-1.654.715-1.726.848c-1.161.63-2.368 1.316-3.552 2.126l-.896.61-.88.657c-.598.427-1.157.923-1.743 1.39-1.128.988-2.25 2.016-3.28 3.134-1.034 1.113-2.024 2.262-2.912 3.46a40.997 40.997 0 0 0-2.449 3.612 39.86 39.86 0 0 0-1.94 3.571 38.661 38.661 0 0 0-1.426 3.328 33.654 33.654 0 0 0-.936 2.88c-.193.69-.333 1.308-.444 1.846 8.292-.02 23.788-.812 31.65-6.053C60.002 27.987 60.596 9.092 69.866 6.121c-2.377-1.188-27.215-7.606-43.258 3.09Z" clip-rule="evenodd"/><defs><linearGradient id="a" x1="6.687" x2="69.866" y1="48.872" y2="6.121" gradientUnits="userSpaceOnUse"><stop stop-color="#448F39"/><stop offset="1" stop-color="#72B635"/></linearGradient></defs></svg>