<svg xmlns="http://www.w3.org/2000/svg" width="118" height="118" fill="none"><path fill="gray" d="M88.5 86.317a5.518 5.518 0 0 0-1.844-10.723h-.76l-7.637-13.75A5.53 5.53 0 0 0 73.424 59H22.451a5.53 5.53 0 0 0-4.835 2.845L9.978 75.594h-.76a5.517 5.517 0 0 0-1.843 10.722v15.09a5.524 5.524 0 0 0 3.688 5.192v2.183a5.538 5.538 0 0 0 5.53 5.531h62.688a5.534 5.534 0 0 0 5.532-5.531v-2.183a5.521 5.521 0 0 0 3.687-5.192v-15.09ZM20.84 63.635a1.846 1.846 0 0 1 1.611-.947h50.973a1.846 1.846 0 0 1 1.612.947l6.644 11.959H14.195l6.645-11.96Zm60.285 45.146a1.844 1.844 0 0 1-1.844 1.844H16.594a1.843 1.843 0 0 1-1.844-1.844v-1.843h66.375v1.843Zm3.688-7.375a1.844 1.844 0 0 1-1.844 1.844H12.906a1.843 1.843 0 0 1-1.843-1.844v-14.75h27.656V88.5a5.537 5.537 0 0 0 5.531 5.531h7.375a5.537 5.537 0 0 0 5.531-5.531v-1.844h27.657v14.75ZM42.406 88.5v-1.844H53.47V88.5a1.846 1.846 0 0 1-1.844 1.844H44.25a1.845 1.845 0 0 1-1.844-1.844Zm44.25-5.531H9.22a1.844 1.844 0 0 1 0-3.688h77.437a1.843 1.843 0 0 1 0 3.688Z"/><path fill="gray" d="M110.219 68.432a5.435 5.435 0 0 0-1.033-5.745 5.401 5.401 0 0 0 .699-6.399 5.523 5.523 0 0 0 2.584-4.663v-9.219a16.611 16.611 0 0 0-14.75-16.485v-4.136a5.521 5.521 0 0 0 3.687-5.191V9.219a5.536 5.536 0 0 0-5.531-5.531h-14.75a5.537 5.537 0 0 0-5.531 5.53v7.376a5.522 5.522 0 0 0 3.687 5.191v4.136a16.613 16.613 0 0 0-14.75 16.485v12.907h3.688V42.406A12.92 12.92 0 0 1 81.125 29.5h14.75a12.923 12.923 0 0 1 12.906 12.906v9.219a1.846 1.846 0 0 1-1.843 1.844H81.125v3.687h23.969a1.844 1.844 0 1 1 0 3.688H84.812v3.687h20.282a1.844 1.844 0 1 1 0 3.688H88.5v3.687h20.281a1.844 1.844 0 0 1 1.844 1.844v27.656c0 .489-.195.958-.541 1.303a1.84 1.84 0 0 1-1.303.541H92.187v3.688h14.751v1.843a1.845 1.845 0 0 1-1.844 1.844H88.5v3.687h16.594a5.534 5.534 0 0 0 5.531-5.531v-2.183a5.52 5.52 0 0 0 3.687-5.192V73.75a5.517 5.517 0 0 0-4.093-5.318ZM79.281 9.22a1.846 1.846 0 0 1 1.844-1.844h14.75a1.846 1.846 0 0 1 1.844 1.844v7.375a1.845 1.845 0 0 1-1.844 1.843h-14.75a1.846 1.846 0 0 1-1.844-1.843V9.219Zm3.688 16.593v-3.687H94.03v3.688H82.97Z"/></svg>