<svg width="118" height="118" viewBox="0 0 118 118" fill="none" xmlns="http://www.w3.org/2000/svg">
<path d="M19.7715 118H98.2279C109.986 118 119.211 108.262 117.87 97.078C117.338 92.6321 107.613 11.5022 107.084 7.08899C106.6 3.04749 103.008 0 98.7293 0H75.8332C70.8316 0 66.9084 4.14221 67.4783 8.89886L69.1009 22.4373C69.3814 24.7777 67.4689 26.8674 64.942 26.8674H64.1221C63.1177 26.8674 62.3039 27.6413 62.3039 28.5959C62.3039 29.5505 63.1177 30.3244 64.1221 30.3244H64.942C69.595 30.3244 73.2443 26.4707 72.7143 22.0462L71.0918 8.50752C70.771 5.8334 72.958 3.45703 75.833 3.45703H91.2602C90.115 5.03736 89.5974 6.97168 89.8285 8.89909L90.0731 10.938C90.187 11.8867 91.091 12.5665 92.0857 12.4596C93.0833 12.3515 93.7999 11.4949 93.6865 10.5465L93.4419 8.50752C93.1219 5.83939 95.3025 3.45703 98.1833 3.45703H98.7293C101.158 3.45703 103.196 5.1867 103.471 7.48032L105.155 21.5299C105.495 24.3682 103.158 26.8674 100.144 26.8674C97.5777 26.8674 95.4233 25.0395 95.1328 22.6157L94.6652 18.7143C94.5515 17.7657 93.6458 17.083 92.6528 17.1925C91.6549 17.3006 90.9383 18.157 91.0518 19.1056L91.5194 23.007C92.0195 27.1785 95.7273 30.3244 100.144 30.3244C102.298 30.3244 104.369 29.5599 105.954 28.2022L114.257 97.4694C115.344 106.533 107.89 114.543 98.2279 114.543H19.7715C10.1756 114.543 2.64812 106.595 3.74221 97.4694L11.1916 35.3221C11.3053 34.3735 10.5887 33.5171 9.59084 33.409C8.59445 33.3004 7.69213 33.9819 7.57818 34.9308L0.12903 97.078C-1.20191 108.185 7.9314 118 19.7715 118Z" fill="grey"/>
<path d="M10.1571 28.6851C11.1547 28.7932 12.0555 28.1117 12.1695 27.1633L14.5286 7.48009C14.8035 5.1867 16.8418 3.45703 19.2703 3.45703H34.6944C33.9329 4.50682 33.4267 5.74259 33.2653 7.08876L31.4723 22.0459C30.9459 26.4408 34.5596 30.3242 39.2446 30.3242H55.6367C56.6411 30.3242 57.455 29.5502 57.455 28.5956C57.455 27.641 56.6411 26.8671 55.6367 26.8671H53.0568C50.5673 26.8671 48.613 24.8143 48.8979 22.4371L50.5207 8.89863C51.087 4.17448 47.2021 0 42.1661 0H19.2703C14.9916 0 11.4 3.04749 10.9154 7.08876L8.55629 26.7719C8.44259 27.7206 9.15922 28.577 10.1571 28.6851ZM35.0857 22.4373L36.8787 7.48032C37.1534 5.1867 39.192 3.45703 41.6201 3.45703H42.1661C44.9911 3.45703 47.2339 5.78661 46.9078 8.50752L45.285 22.0459C45.0818 23.742 45.5017 25.4437 46.4496 26.8671H39.2448C36.7606 26.8674 34.8003 24.8187 35.0857 22.4373Z" fill="grey"/>
<path d="M81.192 85.1939L74.0859 73.493C73.1961 72.0275 71.2269 71.5253 69.685 72.372L66.8675 73.9184C65.3256 74.7645 64.7971 76.6359 65.6881 78.1024L71.0189 86.88H65.1504C65.641 85.3202 65.2738 83.5719 64.0335 82.3488C62.1743 80.5142 59.0608 80.4354 57.1131 82.2872L50.8618 88.2303C48.9672 90.031 48.9662 92.9473 50.8615 94.7491L57.1128 100.692C59.0067 102.493 62.0727 102.494 63.9685 100.693C65.2609 99.4655 65.6425 97.6865 65.1484 96.0992H74.4207C80.5461 96.099 84.112 90.0024 81.192 85.1939ZM61.6063 92.642C60.871 92.642 60.2077 93.063 59.9265 93.709C59.645 94.3548 59.8004 95.0983 60.3204 95.5927L61.3345 96.5567C61.5719 96.7821 61.7117 97.1029 61.7188 97.4371C61.7408 98.5166 60.4128 98.9395 59.6845 98.2474L53.433 92.3043C52.9598 91.8545 52.959 91.1252 53.4332 90.6747L59.6845 84.7316C60.1628 84.2769 60.9413 84.2806 61.415 84.7477C61.8623 85.1888 61.822 85.9588 61.3272 86.4292L60.3207 87.3864C59.8007 87.8807 59.6453 88.6242 59.9267 89.27C60.2079 89.916 60.8712 90.337 61.6065 90.337H74.1683C75.5632 90.337 76.4435 88.8978 75.7429 87.7443L69.0448 76.7152L71.1442 75.5628L78.0428 86.9222C79.6116 89.5051 77.6535 92.6417 74.4211 92.6417H61.6063V92.642Z" fill="grey"/>
<path d="M29.5918 96.099H43.8321C45.6084 96.099 47.0538 94.7252 47.0538 93.0363V89.943C47.0538 88.2541 45.6084 86.8803 43.8321 86.8803H33.1421L36.0605 82.0748C36.9558 82.9807 38.223 83.5316 39.5937 83.5313C42.7858 83.5313 45.1007 80.6433 44.2789 77.7283L41.9909 69.6099C41.2987 67.1556 38.6366 65.6933 36.0525 66.3508L27.5129 68.5262C24.9308 69.184 23.3928 71.7163 24.0845 74.1715C24.5621 75.8659 25.9798 77.0874 27.6627 77.4649L23.0292 85.0948C20.0279 90.0363 23.668 96.099 29.5918 96.099ZM26.1786 86.8236L32.5996 76.2504C32.9674 75.6449 32.9152 74.8885 32.4675 74.3338C32.0199 73.7795 31.2655 73.5354 30.5542 73.7166L29.0831 74.0913C28.4368 74.2554 27.7701 73.8901 27.597 73.2768C27.4242 72.6629 27.8087 72.0298 28.4543 71.8652L36.9936 69.6901C37.6402 69.5257 38.3054 69.8917 38.4785 70.5048L40.7666 78.623C40.9717 79.3509 40.3947 80.0743 39.5935 80.0743C39.0473 80.0743 38.5668 79.7228 38.4247 79.2197L38.03 77.8194C37.8397 77.1441 37.2402 76.6442 36.511 76.553C35.7825 76.4624 35.0666 76.797 34.699 77.4025L28.4182 87.7445C27.7207 88.8929 28.5917 90.3373 29.9927 90.3373H43.4171V92.642H29.5915C26.502 92.642 24.5587 89.4899 26.1786 86.8236Z" fill="grey"/>
<path d="M45.4737 48.1495L38.3594 59.8633C37.4716 61.3257 38.0008 63.2024 39.5388 64.0466L42.3563 65.5933C43.8986 66.4398 45.8672 65.9387 46.7574 64.4725L52.0959 55.6822L55.0143 60.4879C53.3323 60.8656 51.9141 62.0871 51.4363 63.7818C50.7444 66.2367 52.2821 68.7691 54.8647 69.4273L63.4051 71.6027C66.0119 72.2658 68.6563 70.7793 69.3427 68.3432L71.631 60.2249C72.3226 57.7702 70.7846 55.2376 68.2015 54.5794C66.4187 54.1265 64.5971 54.6831 63.4126 55.8785L58.7191 48.1495C55.7768 43.3039 48.4192 43.2989 45.4737 48.1495ZM55.5697 49.878L62.0511 60.5504C62.4191 61.1558 63.1348 61.4904 63.863 61.3999C64.5922 61.3086 65.1915 60.8087 65.3821 60.1334L65.7768 58.7334C65.9499 58.1201 66.6156 57.7546 67.2614 57.9184C67.907 58.083 68.2915 58.7161 68.1186 59.33L65.8306 67.4483C65.6888 67.9516 65.208 68.3029 64.6616 68.3029C64.4349 68.3029 65.1566 68.4695 55.8066 66.0878C55.161 65.9233 54.7762 65.2902 54.9493 64.6764C55.0946 64.1623 55.586 63.8223 56.1212 63.8223C56.3513 63.8223 56.377 63.847 57.9065 64.2367C58.6163 64.4179 59.372 64.1743 59.8198 63.6195C60.2675 63.0648 60.3197 62.3084 59.9519 61.7029L53.6712 51.3609C52.9728 50.2111 51.2217 50.209 50.5221 51.3609L43.8162 62.4024L41.7168 61.2501L48.6234 49.878C50.1662 47.3369 54.0247 47.3337 55.5697 49.878Z" fill="grey"/>
<path d="M99.4277 75.4628C100.512 75.4628 101.36 74.5677 101.237 73.5384L96.3728 32.9619C96.2589 32.0133 95.358 31.3308 94.3601 31.4401C93.3625 31.5482 92.6459 32.4048 92.7594 33.3532L97.6232 73.9298C97.7292 74.8118 98.5156 75.4628 99.4277 75.4628Z" fill="grey"/>
</svg>
