<svg width="118" height="118" viewBox="0 0 118 118" fill="none" xmlns="http://www.w3.org/2000/svg">
<path d="M104.384 13.3317V7.09129C104.384 3.18116 101.203 0 97.2931 0H20.7065C16.7964 0 13.6152 3.18116 13.6152 7.09129V13.3317C13.6152 16.2494 15.3871 18.7606 17.9109 19.8477C15.2652 22.4071 13.6152 25.9904 13.6152 29.9538V39.7114V94.173V109.301C13.6152 114.098 17.5173 118 22.3138 118H95.6859C100.482 118 104.384 114.098 104.384 109.301V94.1732V39.7116V29.954C104.384 25.9907 102.735 22.4076 100.089 19.848C102.613 18.7606 104.384 16.2494 104.384 13.3317ZM99.846 109.301C99.846 111.595 97.9797 113.462 95.6859 113.462H22.3138C20.02 113.462 18.1536 111.595 18.1536 109.301V96.4424H99.846V109.301ZM99.846 91.9038H18.1536V52.1924H27.2306C28.4837 52.1924 29.4998 51.1765 29.4998 49.9232C29.4998 48.6699 28.4837 47.654 27.2306 47.654H18.1536V41.981H99.846V91.9038ZM99.846 37.4424H18.1536V29.954C18.1536 24.6986 22.4291 20.4232 27.6844 20.4232H90.3152C95.5706 20.4232 99.846 24.6986 99.846 29.954V37.4424ZM99.846 13.3317C99.846 14.7394 98.7008 15.8846 97.2931 15.8846H20.7065C19.2988 15.8846 18.1536 14.7394 18.1536 13.3317V7.09129C18.1536 5.68359 19.2988 4.53839 20.7065 4.53839H97.2931C98.7008 4.53839 99.846 5.68359 99.846 7.09129V13.3317Z" fill="grey"/>
<path d="M35.6428 48.3187C35.221 47.8967 34.6354 47.6538 34.0387 47.6538C33.442 47.6538 32.8564 47.8967 32.4344 48.3187C32.0124 48.7407 31.7695 49.3263 31.7695 49.923C31.7695 50.5199 32.0122 51.1053 32.4344 51.5273C32.8567 51.9493 33.442 52.1922 34.0387 52.1922C34.6354 52.1922 35.221 51.9493 35.6428 51.5273C36.0648 51.1053 36.3079 50.5197 36.3079 49.923C36.3077 49.3263 36.065 48.7409 35.6428 48.3187Z" fill="grey"/>
</svg>
