<svg
          width="70"
          height="60"
          viewBox="0 0 70 60"
          fill="none"
          xmlns="http://www.w3.org/2000/svg"
        >
          <path
            fill-rule="evenodd"
            clip-rule="evenodd"
            d="M29.992 59.9839C13.4278 59.9839 0 46.5562 0 29.992C0 13.4277 13.4278 0 29.992 0C46.556 0 59.9839 13.4277 59.9839 29.992C59.9839 46.5562 46.556 59.9839 29.992 59.9839ZM26.6081 9.21118C16.8621 15.7081 13.4756 26.1506 12.3188 33.3496L12.2733 33.3376C12.1757 33.7166 9.78839 42.6677 9.86776 52.2305C10.8361 53.11 11.9561 53.967 13.0496 54.7437C12.7529 49.8668 12.9861 45.6436 13.7274 40.7987C13.9117 40.1375 14.1445 39.3685 14.4547 38.5133C14.7901 37.5756 15.2129 36.54 15.7211 35.4385C16.2377 34.3417 16.8264 33.1712 17.5277 31.9822C18.2171 30.7876 19.0011 29.5629 19.8795 28.3479C20.7451 27.126 21.7118 25.9167 22.7496 24.7418C23.7775 23.5576 24.9067 22.4328 26.0728 21.3567C27.2345 20.2746 28.4846 19.2928 29.732 18.3613C30.3763 17.9221 30.9914 17.456 31.6444 17.0607C31.9667 16.8568 32.2869 16.6542 32.6035 16.4526C32.9293 16.2668 33.2534 16.0798 33.574 15.8964C34.8543 15.1576 36.1467 14.5471 37.3789 13.9979C38.0049 13.7474 38.6143 13.504 39.2036 13.269C39.8024 13.0631 40.3809 12.8635 40.9365 12.672C41.4996 12.5088 42.0389 12.3512 42.5524 12.2015C43.0674 12.0601 43.5635 11.955 44.0245 11.8425C44.4855 11.7235 44.9225 11.6404 45.327 11.5691C45.7307 11.4946 46.1013 11.4265 46.4362 11.3632C47.7844 11.1694 48.5539 11.0737 48.5539 11.0737C48.5539 11.0737 47.7913 11.2294 46.4689 11.524C46.141 11.6106 45.7781 11.7074 45.3835 11.8126C44.9879 11.9133 44.5633 12.0284 44.1166 12.181C43.6686 12.328 43.1876 12.468 42.6908 12.647C42.1972 12.8329 41.6786 13.028 41.1376 13.2313C40.6076 13.4602 40.0557 13.6994 39.484 13.9463C38.9264 14.2199 38.3504 14.5032 37.7577 14.7942C36.5967 15.4233 35.3898 16.1096 34.2059 16.9198C33.9091 17.122 33.6108 17.3246 33.3099 17.5292C33.0191 17.747 32.7254 17.9666 32.4302 18.1869C31.8316 18.614 31.2729 19.1102 30.6873 19.5774C29.5587 20.5654 28.437 21.593 27.4071 22.7112C26.3731 23.8235 25.3834 24.9733 24.4955 26.1707C23.5984 27.3586 22.7734 28.5699 22.0463 29.7832C21.3088 30.9887 20.6633 32.1916 20.1064 33.354C19.5375 34.5119 19.0774 35.6374 18.6801 36.6816C18.291 37.7268 17.9788 38.6971 17.7435 39.5625C17.5508 40.2526 17.4108 40.8699 17.2999 41.4081C25.5917 41.3871 41.088 40.5965 48.9499 35.3552C60.0018 27.9874 60.5962 9.09168 69.8658 6.12123C67.4886 4.93266 42.6514 -1.48489 26.6081 9.21118Z"
            fill="url(#paint0_linear_498_10)"
          />
          <defs>
            <linearGradient
              id="paint0_linear_498_10"
              x1="6.68676"
              y1="48.8718"
              x2="69.8658"
              y2="6.12123"
              gradientUnits="userSpaceOnUse"
            >
              <stop stop-color="#448F39" />
              <stop offset="1" stop-color="#72B635" />
            </linearGradient>
          </defs>
        </svg>