<svg width="118" height="118" viewBox="0 0 118 118" fill="none" xmlns="http://www.w3.org/2000/svg">
<path d="M88.5001 86.3165C89.7299 85.8841 90.7668 85.0303 91.4272 83.9064C92.0876 82.7824 92.3287 81.461 92.1078 80.1763C91.8869 78.8916 91.2182 77.7265 90.2204 76.8877C89.2225 76.0489 87.9599 75.5905 86.6563 75.5938H85.8969L78.2586 61.8449C77.7797 60.9827 77.0789 60.2643 76.2288 59.7641C75.3788 59.2638 74.4105 59 73.4242 59H22.451C21.4647 59 20.4963 59.2638 19.6463 59.7641C18.7963 60.2643 18.0955 60.9827 17.6165 61.8449L9.9782 75.5938H9.21881C7.91524 75.5905 6.65261 76.0489 5.65474 76.8877C4.65687 77.7265 3.98822 78.8915 3.76731 80.1762C3.54641 81.4609 3.78751 82.7824 4.44789 83.9063C5.10827 85.0302 6.14527 85.884 7.37506 86.3164V101.406C7.37857 102.546 7.73491 103.657 8.39516 104.587C9.0554 105.517 9.98718 106.219 11.0626 106.598V108.781C11.0642 110.248 11.6474 111.654 12.6844 112.691C13.7214 113.728 15.1273 114.311 16.5938 114.312H79.2813C80.7478 114.311 82.1538 113.728 83.1907 112.691C84.2277 111.654 84.811 110.248 84.8126 108.781V106.598C85.888 106.219 86.8197 105.517 87.48 104.587C88.1402 103.658 88.4966 102.546 88.5001 101.406V86.3165ZM20.8395 63.6346C20.9995 63.3476 21.2333 63.1086 21.5165 62.9421C21.7998 62.7756 22.1224 62.6877 22.451 62.6875H73.4242C73.7527 62.6877 74.0753 62.7756 74.3586 62.9421C74.6418 63.1086 74.8755 63.3476 75.0356 63.6346L81.6796 75.5938H14.1955L20.8395 63.6346ZM81.1251 108.781C81.1246 109.27 80.9302 109.739 80.5845 110.084C80.2388 110.43 79.7702 110.625 79.2813 110.625H16.5938C16.105 110.625 15.6363 110.43 15.2906 110.084C14.945 109.739 14.7505 109.27 14.7501 108.781V106.938H81.1251V108.781ZM84.8126 101.406C84.8121 101.895 84.6177 102.364 84.272 102.709C83.9263 103.055 83.4577 103.25 82.9688 103.25H12.9063C12.4175 103.25 11.9488 103.055 11.6031 102.709C11.2575 102.364 11.063 101.895 11.0626 101.406V86.6562H38.7188V88.5C38.7204 89.9665 39.3037 91.3725 40.3406 92.4094C41.3776 93.4464 42.7836 94.0296 44.2501 94.0312H51.6251C53.0915 94.0296 54.4975 93.4464 55.5345 92.4094C56.5714 91.3725 57.1547 89.9665 57.1563 88.5V86.6562H84.8126V101.406ZM42.4063 88.5V86.6562H53.4688V88.5C53.4683 88.9888 53.2739 89.4575 52.9282 89.8032C52.5826 90.1489 52.1139 90.3433 51.6251 90.3438H44.2501C43.7612 90.3433 43.2925 90.1489 42.9469 89.8032C42.6012 89.4575 42.4068 88.9888 42.4063 88.5ZM86.6563 82.9688H9.21881C8.72982 82.9688 8.26085 82.7745 7.91508 82.4287C7.56931 82.083 7.37506 81.614 7.37506 81.125C7.37506 80.636 7.56931 80.167 7.91508 79.8213C8.26085 79.4755 8.72982 79.2812 9.21881 79.2812H86.6563C87.1453 79.2812 87.6143 79.4755 87.96 79.8213C88.3058 80.167 88.5001 80.636 88.5001 81.125C88.5001 81.614 88.3058 82.083 87.96 82.4287C87.6143 82.7745 87.1453 82.9688 86.6563 82.9688Z" fill="grey"/>
<path d="M110.219 68.4321C110.611 67.4755 110.722 66.427 110.539 65.4094C110.356 64.3919 109.887 63.4476 109.186 62.6875C109.974 61.837 110.467 60.7557 110.593 59.6033C110.719 58.4509 110.471 57.2886 109.885 56.2882C110.674 55.7924 111.325 55.1047 111.777 54.2892C112.229 53.4738 112.467 52.5572 112.469 51.625V42.4062C112.463 38.3268 110.957 34.3921 108.236 31.3519C105.516 28.3118 101.772 26.3787 97.7188 25.9213V21.7853C98.7941 21.4065 99.7259 20.7041 100.386 19.7745C101.046 18.845 101.403 17.7339 101.406 16.5938V9.21875C101.405 7.75226 100.821 6.3463 99.7844 5.30933C98.7475 4.27237 97.3415 3.6891 95.875 3.6875H81.125C79.6585 3.6891 78.2525 4.27237 77.2156 5.30933C76.1786 6.3463 75.5954 7.75226 75.5938 9.21875V16.5938C75.5973 17.7339 75.9536 18.845 76.6138 19.7745C77.2741 20.704 78.2059 21.4064 79.2812 21.7851V25.9213C75.2275 26.3787 71.4838 28.3118 68.7636 31.3519C66.0435 34.3921 64.537 38.3268 64.5312 42.4062V55.3125H68.2188V42.4062C68.2227 38.9845 69.5838 35.7041 72.0033 33.2846C74.4228 30.865 77.7033 29.504 81.125 29.5H95.875C99.2967 29.504 102.577 30.865 104.997 33.2846C107.416 35.7041 108.777 38.9845 108.781 42.4062V51.625C108.781 52.1138 108.586 52.5825 108.241 52.9282C107.895 53.2739 107.426 53.4683 106.938 53.4688H81.125V57.1562H105.094C105.583 57.1562 106.052 57.3505 106.397 57.6963C106.743 58.042 106.938 58.511 106.938 59C106.938 59.489 106.743 59.958 106.397 60.3037C106.052 60.6495 105.583 60.8438 105.094 60.8438H84.8116V64.5312H105.094C105.583 64.5312 106.052 64.7255 106.397 65.0713C106.743 65.417 106.938 65.886 106.938 66.375C106.938 66.864 106.743 67.333 106.397 67.6787C106.052 68.0245 105.583 68.2188 105.094 68.2188H88.5V71.9062H108.781C109.27 71.9067 109.739 72.1012 110.084 72.4468C110.43 72.7925 110.625 73.2612 110.625 73.75V101.406C110.625 101.895 110.43 102.364 110.084 102.709C109.739 103.055 109.27 103.25 108.781 103.25H92.1875V106.938H106.938V108.781C106.937 109.27 106.743 109.739 106.397 110.084C106.051 110.43 105.583 110.625 105.094 110.625H88.5V114.312H105.094C106.56 114.311 107.966 113.728 109.003 112.691C110.04 111.654 110.623 110.248 110.625 108.781V106.598C111.7 106.219 112.632 105.517 113.292 104.587C113.953 103.658 114.309 102.546 114.312 101.406V73.75C114.309 72.5371 113.906 71.3592 113.166 70.3981C112.426 69.437 111.39 68.7461 110.219 68.4321ZM79.2812 9.21875C79.2817 8.72991 79.4761 8.26123 79.8218 7.91556C80.1675 7.5699 80.6362 7.37549 81.125 7.375H95.875C96.3638 7.37549 96.8325 7.5699 97.1782 7.91556C97.5239 8.26123 97.7183 8.72991 97.7188 9.21875V16.5938C97.7183 17.0826 97.5239 17.5513 97.1782 17.8969C96.8325 18.2426 96.3638 18.437 95.875 18.4375H81.125C80.6362 18.437 80.1675 18.2426 79.8218 17.8969C79.4761 17.5513 79.2817 17.0826 79.2812 16.5938V9.21875ZM82.9688 25.8125V22.125H94.0312V25.8125H82.9688Z" fill="grey"/>
</svg>
